<svg id="Capa_1" enable-background="new 0 0 497 497" height="512" viewBox="0 0 497 497" width="512" xmlns="http://www.w3.org/2000/svg"><g><path d="m283.07 393.5-99.14 30-3.19 11.15c-4.53 15.87-21.74 28.85-38.24 28.85v7.5h182v-7.5z" fill="#3d5168"/><path d="m316.26 434.65-11.76-41.15-56-30-56 30-8.57 30h99.14l3.19 11.15c4.53 15.87 21.74 28.85 38.24 28.85l15 7.5 15-7.5c-16.5 0-33.71-12.98-38.24-28.85z" fill="#233952"/><path d="m403.5 478.5h-310c-4.142 0-7.5-3.358-7.5-7.5s3.358-7.5 7.5-7.5h310c4.142 0 7.5 3.358 7.5 7.5s-3.358 7.5-7.5 7.5z" fill="#233952"/><path d="m467 18.5h-30v375h30c16.5 0 30-13.5 30-30v-315c0-16.5-13.5-30-30-30z" fill="#3d5168"/><path d="m437 18.5h-407c-16.5 0-30 13.5-30 30v315c0 16.5 13.5 30 30 30h407c16.5 0 30-13.5 30-30v-30l-218.5-142.5 218.5-142.5c0-16.5-13.5-30-30-30z" fill="#57697d"/><path d="m467 48.5-29.994-.027c-.001.007-188.506 142.5-188.506 142.5s188.502 142.497 188.5 142.5c0 0 29.999-.025 29.999-.025.001.001-.002-284.942.001-284.948z" fill="#1e8aff"/><path d="m437 48.5-406.912-.027c-.024.014-.045 284.994-.088 285 0 0 406.98-.025 406.99-.025.005.001-.032-284.942.01-284.948z" fill="#54a5ff"/><circle cx="467.68" cy="363.473" fill="#85cf75" r="7.5"/><circle cx="437.68" cy="363.473" fill="#3d5168" r="7.5"/></g></svg>