<svg id="icons" enable-background="new 0 0 64 64" height="512" viewBox="0 0 64 64" width="512" xmlns="http://www.w3.org/2000/svg"><path d="m28.995 27.99v4.011l-3.988-.01v-9.001h5.988v3c-1.099 0-2 .9-2 2z" fill="#434a54"/><path d="m25.007 31.991 3.988.01h2v28.989c0 1.109-.889 2.01-2 2.01h-2.988c-1.111 0-2-.9-2-2.01v-10.99-4-4-10.009z" fill="#5d9cec"/><path d="m39.983 50v10.99h.01c0 1.109-.889 2.01-2 2.01h-2.988c-1.111 0-2.012-.9-2.012-2.01h-.01v-28.999h.01 2l4 .01h.99v9.999 4z" fill="#5d9cec"/><path d="m38.993 22.99v8.01l-4-.01v-3c0-1.101-.889-2-2-2v-3z" fill="#434a54"/><path d="m38.993 8v4.99h-6v-5h6z" fill="#434a54"/><path d="m25.007 7.99h5.988v5h-5.988z" fill="#434a54"/><path d="m28.494 4.5c0 1.862 1.471 3.403 3.326 3.49h-1.576-5.24-.01c.01-3.867 3.141-6.99 7-6.99-1.933 0-3.5 1.565-3.5 3.5z" fill="#545c66"/><path d="m38.994 7.99h-5.25-1.924c-1.855-.087-3.326-1.628-3.326-3.49 0-1.935 1.566-3.5 3.5-3.5 3.867 0 6.992 3.123 7 6.99z" fill="#656d78"/><path d="m32.03 5.561c-.553 0-1.005-.447-1.005-1s.442-1 .994-1h.011c.552 0 1 .447 1 1s-.448 1-1 1z" fill="#545c66"/><g fill="#4a89dc"><path d="m25.001 40.999h-.994v1.001.999h.994c.553 0 1-.447 1-1s-.447-1-1-1z"/><path d="m25.001 44.999h-.994v1.001.999h.994c.553 0 1-.447 1-1s-.447-1-1-1z"/><path d="m25.001 48.999h-.994v1.001.999h.994c.553 0 1-.447 1-1s-.447-1-1-1z"/><path d="m38.996 40.999h.994v1.001.999h-.994c-.553 0-1-.447-1-1s.447-1 1-1z"/><path d="m38.996 44.999h.994v1.001.999h-.994c-.553 0-1-.447-1-1s.447-1 1-1z"/><path d="m38.996 48.999h.994v1.001.999h-.994c-.553 0-1-.447-1-1s.447-1 1-1z"/></g><path d="m37.993 12.99h-4-1v1 1 1h-1c-.55 0-1 .45-1 1v2c0 .55.45 1 1 1h1v1 1 1h1 4 1v-1-8-1z" fill="#545c66"/><path d="m31.001 20.99v-1h-.004-.996c-.55 0-1-.45-1-1v-2c0-.55.45-1 1-1h.996.004v-1-1-1h-5.994v10h5.994v-1z" fill="#545c66"/><path d="m29.994 32.991h-4.986c-.553 0-1-.447-1-1s.447-1 1-1h4.986c.553 0 1 .447 1 1s-.447 1-1 1z" fill="#5d9cec"/><path d="m38.981 32.991h-4.986c-.553 0-1-.447-1-1s.447-1 1-1h4.986c.553 0 1 .447 1 1s-.447 1-1 1z" fill="#5d9cec"/></svg>