<svg height="512" viewBox="0 0 64 64" width="512" xmlns="http://www.w3.org/2000/svg"><g id="flat"><path d="m25 52h-20v-10l3-6h14l3 6z" fill="#394d5c"/><path d="m39 12h20v10l-3 6h-14l-3-6z" fill="#394d5c"/><path d="m47 32v18.5a6.5 6.5 0 0 1 -6.5 6.5 6.5 6.5 0 0 1 -6.5-6.5v-37a10.5 10.5 0 0 0 -10.5-10.5 10.5 10.5 0 0 0 -10.5 10.5v18.5h4v-18.5a6.5 6.5 0 0 1 6.5-6.5 6.5 6.5 0 0 1 6.5 6.5v37a10.5 10.5 0 0 0 10.5 10.5 10.5 10.5 0 0 0 10.5-10.5v-18.5z" fill="#50b4f8"/><path d="m10 32h10v4h-10z" fill="#7d8d9c"/><path d="m13 28h4v4h-4z" fill="#dd3e46"/><path d="m9 40h12v4h-12z" fill="#7d8d9c"/><path d="m7 52h16v9h-16z" fill="#d3843d"/><path d="m11 52h8v9h-8z" fill="#f9bb4b"/><g fill="#7d8d9c"><path d="m5 47h9v2h-9z"/><path d="m16 47h9v2h-9z"/><path d="m43 20h12v4h-12z" transform="matrix(-1 0 0 -1 98 44)"/></g><path d="m41 3h16v9h-16z" fill="#d3843d" transform="matrix(-1 0 0 -1 98 15)"/><path d="m45 3h8v9h-8z" fill="#f9bb4b" transform="matrix(-1 0 0 -1 98 15)"/><path d="m47 32h4v4h-4z" fill="#dd3e46"/><path d="m11 56h3v2h-3z" fill="#f4f4e6"/><path d="m16 56h3v2h-3z" fill="#f4f4e6"/><path d="m50 15h2v2h-2z" fill="#7d8d9c"/><path d="m46 15h2v2h-2z" fill="#7d8d9c"/><path d="m44 28h10v4h-10z" fill="#7d8d9c"/></g></svg>