<svg height="464pt" viewBox="0 0 464 464" width="464pt" xmlns="http://www.w3.org/2000/svg"><path d="m288 396v-344c0-11.046875-8.953125-20-20-20s-20 8.953125-20 20v360c0 28.71875-23.28125 52-52 52s-52-23.28125-52-52v-344c0-19.882812-16.117188-36-36-36s-36 16.117188-36 36v116h-32v-116c0-37.554688 30.445312-68 68-68s68 30.445312 68 68v344c0 11.046875 8.953125 20 20 20s20-8.953125 20-20v-360c0-28.71875 23.28125-52 52-52s52 23.28125 52 52v344c0 19.882812 16.117188 36 36 36s36-16.117188 36-36v-116h32v116c0 37.554688-30.445312 68-68 68s-68-30.445312-68-68zm0 0" fill="#2d67c4"/><path d="m112 272-8 8h-96l-8-8 24-96h64zm0 0" fill="#0c56bc"/><path d="m8 360h96v104h-96zm0 0" fill="#dce1ea"/><path d="m32 232h48v16h-48zm0 0" fill="#354468"/><path d="m32 424h16v40h-16zm0 0" fill="#ffbc05"/><path d="m352 192 8-8h96l8 8-24 96h-64zm0 0" fill="#0c56bc"/><path d="m360 0h96v104h-96zm0 0" fill="#dce1ea"/><path d="m384 216h48v16h-48zm0 0" fill="#354468"/><path d="m392 248h32v16h-32zm0 0" fill="#354468"/><path d="m384 0h16v40.664062h-16zm0 0" fill="#ffbc05"/><path d="m416 0h16v40h-16zm0 0" fill="#ffbc05"/><path d="m32 392h48v16h-48zm0 0" fill="#9196a9"/><path d="m64 424h16v40h-16zm0 0" fill="#ffbc05"/><path d="m40 200h32v16h-32zm0 0" fill="#354468"/><path d="m0 272h112v96h-112zm0 0" fill="#2d67c4"/><path d="m352 96h112v96h-112zm0 0" fill="#2d67c4"/><path d="m392 64h32v64h-32zm0 0" fill="#bec3d1"/></svg>