<?xml version="1.0" encoding="iso-8859-1"?>
<!-- Generator: Adobe Illustrator 19.0.0, SVG Export Plug-In . SVG Version: 6.00 Build 0)  -->
<svg version="1.1" id="Layer_1" xmlns="http://www.w3.org/2000/svg" xmlns:xlink="http://www.w3.org/1999/xlink" x="0px" y="0px"
	 viewBox="0 0 512 512" style="enable-background:new 0 0 512 512;" xml:space="preserve">
<path style="fill:#5C5F66;" d="M83.478,489.693c-9.223,0-16.696-7.479-16.696-16.696v-33.391c0-9.217,7.473-16.696,16.696-16.696
	s16.696,7.479,16.696,16.696v33.391C100.174,482.215,92.701,489.693,83.478,489.693z"/>
<path style="fill:#53565C;" d="M428.522,489.693c-9.223,0-16.696-7.479-16.696-16.696v-33.391c0-9.217,7.473-16.696,16.696-16.696
	s16.696,7.479,16.696,16.696v33.391C445.217,482.215,437.744,489.693,428.522,489.693z"/>
<path style="fill:#58718C;" d="M461.913,222.562H50.087C22.468,222.562,0,245.03,0,272.649v133.565
	c0,27.619,22.468,50.087,50.087,50.087h411.826c27.619,0,50.087-22.468,50.087-50.087V272.649
	C512,245.03,489.532,222.562,461.913,222.562z"/>
<path style="fill:#50667F;" d="M461.913,222.562H328.348v233.739h133.565c27.619,0,50.087-22.468,50.087-50.087V272.649
	C512,245.03,489.532,222.562,461.913,222.562z"/>
<g>
	<path style="fill:#5AF1FF;" d="M481.826,119.139c-84.63-84.609-222.32-84.609-306.951,0c-6.521,6.521-17.087,6.521-23.609,0
		s-6.521-17.087,0-23.609C248.909-2.1,407.783-2.1,505.435,95.53c6.521,6.521,6.521,17.087,0,23.609
		C498.913,125.661,488.348,125.661,481.826,119.139z"/>
	<path style="fill:#5AF1FF;" d="M434.598,166.367c-58.544-58.533-153.752-58.736-212.5,0c-6.511,6.521-17.087,6.521-23.609,0
		c-6.521-6.521-6.521-17.087,0-23.609c71.671-71.682,188.043-71.686,259.718,0c6.521,6.521,6.521,17.087,0,23.609
		C451.684,172.889,441.12,172.889,434.598,166.367z"/>
</g>
<g>
	<path style="fill:#C4CAD9;" d="M161.391,322.829H83.478c-9.223,0-16.696-7.479-16.696-16.696c0-9.217,7.473-16.696,16.696-16.696
		h77.913c9.223,0,16.696,7.479,16.696,16.696C178.087,315.351,170.614,322.829,161.391,322.829z"/>
	<path style="fill:#C4CAD9;" d="M161.391,389.612H83.478c-9.223,0-16.696-7.479-16.696-16.696c0-9.217,7.473-16.696,16.696-16.696
		h77.913c9.223,0,16.696,7.479,16.696,16.696C178.087,382.134,170.614,389.612,161.391,389.612z"/>
</g>
<g>
	<path style="fill:#51DAE6;" d="M328.348,88.996v33.399c38.489,0.006,76.958,14.687,106.25,43.973
		c6.521,6.521,17.087,6.521,23.609,0s6.521-17.087,0-23.609C422.37,106.916,375.358,88.996,328.348,88.996z"/>
	<path style="fill:#51DAE6;" d="M328.348,22.308v33.375c55.581-0.001,111.162,21.151,153.479,63.457
		c6.521,6.521,17.087,6.521,23.609,0s6.521-17.087,0-23.609C456.609,46.716,392.478,22.308,328.348,22.308z"/>
</g>
<path style="fill:#E6EEFF;" d="M328.348,389.519c-64.441,0-116.87-52.424-116.87-116.87s52.429-116.87,116.87-116.87
	s116.87,52.424,116.87,116.87S392.789,389.519,328.348,389.519z"/>
<path style="fill:#DAE2F2;" d="M445.217,272.649c0-64.445-52.429-116.87-116.87-116.87v233.739
	C392.789,389.519,445.217,337.095,445.217,272.649z"/>
<path style="fill:#54CCFF;" d="M328.348,189.171c-46.032,0-83.478,37.446-83.478,83.478s37.446,83.478,83.478,83.478
	s83.478-37.446,83.478-83.478S374.38,189.171,328.348,189.171z"/>
<path style="fill:#4BB8E6;" d="M411.826,272.649c0-46.032-37.446-83.478-83.478-83.478v166.957
	C374.38,356.127,411.826,318.682,411.826,272.649z"/>
<path style="fill:#4DA6FF;" d="M328.348,322.736c-27.619,0-50.087-22.468-50.087-50.087c0-27.619,22.468-50.087,50.087-50.087
	s50.087,22.468,50.087,50.087C378.435,300.268,355.967,322.736,328.348,322.736z"/>
<path style="fill:#4596E6;" d="M378.435,272.649c0-27.619-22.468-50.087-50.087-50.087v100.174
	C355.967,322.736,378.435,300.269,378.435,272.649z"/>
<path style="fill:#E6EEFF;" d="M328.348,255.953c-9.206,0-16.696,7.49-16.696,16.696c0,9.206,7.49,16.696,16.696,16.696
	c9.206,0,16.696-7.49,16.696-16.696C345.043,263.443,337.554,255.953,328.348,255.953z"/>
<path style="fill:#DAE2F2;" d="M345.043,272.649c0-9.206-7.49-16.696-16.696-16.696v33.391
	C337.554,289.345,345.043,281.856,345.043,272.649z"/>
<g>
</g>
<g>
</g>
<g>
</g>
<g>
</g>
<g>
</g>
<g>
</g>
<g>
</g>
<g>
</g>
<g>
</g>
<g>
</g>
<g>
</g>
<g>
</g>
<g>
</g>
<g>
</g>
<g>
</g>
</svg>
