<svg height="512pt" viewBox="-44 0 512 512" width="512pt" xmlns="http://www.w3.org/2000/svg"><path d="m252.933594 40.660156v65.273438c0 .277344-.007813.546875-.03125.8125-.410156 5.285156-4.839844 9.4375-10.21875 9.4375h-60.832032c-5.378906 0-9.804687-4.152344-10.21875-9.4375-.019531-.265625-.03125-.535156-.03125-.8125v-65.273438c0-22.457031 18.203126-40.660156 40.671876-40.660156 11.230468 0 21.398437 4.554688 28.75 11.910156 7.359374 7.355469 11.910156 17.523438 11.910156 28.75zm0 0" fill="#6d80d6"/><path d="m215.992188 37.5c-1.234376-.042969-2.484376-.0625-3.71875-.0625-1.246094 0-2.492188.019531-3.71875.0625-12.496094.246094-24.871094 1.75-36.953126 4.46875v63.964844c0 .277344.007813.546875.03125.8125 10.980469-9.257813 25.144532-14.832032 40.589844-14.84375h.089844c15.445312.011718 29.609375 5.585937 40.589844 14.84375.023437-.265625.03125-.535156.03125-.8125v-63.964844c-12.074219-2.71875-24.445313-4.222656-36.941406-4.46875zm0 0" fill="#5169ce"/><path d="m67.890625 399.65625v-176.773438c0-30.417968 9.453125-58.660156 25.578125-81.964843 26.082031-37.683594 69.601562-62.410157 118.800781-62.410157 49.195313 0 92.714844 24.726563 118.796875 62.410157 16.125 23.304687 25.578125 51.546875 25.578125 81.964843v176.773438h27.679688v-176.773438c0-61.953124-32.910157-116.359374-82.167969-146.652343-26.175781-16.105469-56.96875-25.40625-89.890625-25.40625-32.917969 0-63.714844 9.300781-89.886719 25.40625-49.261718 30.292969-82.167968 84.699219-82.167968 146.652343v176.773438zm0 0" fill="#7a6e79"/><path d="m302.15625 76.230469c-26.171875-16.109375-56.96875-25.40625-89.886719-25.40625-32.921875 0-63.714843 9.296875-89.890625 25.40625-15.570312 17.722656-25.996094 40.074219-28.910156 64.6875 26.082031-37.6875 69.601562-62.414063 118.800781-62.414063 49.195313 0 92.714844 24.730469 118.796875 62.414063-2.910156-24.613281-13.335937-46.964844-28.910156-64.6875zm0 0" fill="#605860"/><path d="m212.269531 259.34375c-57.488281 0-104.261719-46.769531-104.261719-104.257812 0-57.488282 46.773438-104.261719 104.261719-104.261719s104.257813 46.769531 104.257813 104.261719c0 57.484374-46.769532 104.257812-104.257813 104.257812zm0-180.839844c-42.226562 0-76.582031 34.351563-76.582031 76.578125 0 42.226563 34.355469 76.578125 76.582031 76.578125 42.222657 0 76.578125-34.351562 76.578125-76.578125 0-42.222656-34.355468-76.578125-76.578125-76.578125zm0 0" fill="#7a6e79"/><path d="m244.453125 55.921875v29.691406c-9.789063-4.566406-20.699219-7.109375-32.183594-7.109375-11.488281 0-22.398437 2.542969-32.1875 7.109375v-29.691406c10.136719-3.316406 20.957031-5.097656 32.1875-5.097656 11.226563 0 22.046875 1.78125 32.183594 5.097656zm0 0" fill="#605860"/><path d="m229.011719 116.1875h-33.488281v-66.636719c0-9.25 7.496093-16.746093 16.746093-16.746093 9.246094 0 16.746094 7.496093 16.746094 16.746093v66.636719zm0 0" fill="#a4b0e5"/><path d="m91.84375 395.757812c-4.269531 0-7.726562-3.457031-7.726562-7.726562v-28.113281c0-4.269531 3.457031-7.726563 7.726562-7.726563 4.265625 0 7.722656 3.457032 7.722656 7.726563v28.113281c.003906 4.269531-3.457031 7.726562-7.722656 7.726562zm0 0" fill="#5169ce"/><path d="m16.164062 395.757812c-4.265624 0-7.722656-3.457031-7.722656-7.726562v-28.113281c0-4.269531 3.457032-7.726563 7.722656-7.726563 4.269532 0 7.726563 3.457032 7.726563 7.726563v28.113281c0 4.269531-3.457031 7.726562-7.726563 7.726562zm0 0" fill="#5169ce"/><path d="m15.457031 482.855469v17.894531c0 4.265625-3.460937 7.726562-7.726562 7.726562-4.273438 0-7.72656275-3.460937-7.72656275-7.726562v-17.894531c0-4.265625 3.45312475-7.726563 7.72656275-7.726563 4.265625 0 7.726562 3.460938 7.726562 7.726563zm0 0" fill="#b6aeb7"/><path d="m108.007812 482.855469v17.894531c0 4.265625-3.460937 7.726562-7.726562 7.726562s-7.726562-3.460937-7.726562-7.726562v-17.894531c0-4.265625 3.460937-7.726563 7.726562-7.726563s7.726562 3.460938 7.726562 7.726563zm0 0" fill="#b6aeb7"/><path d="m82.109375 480.816406v20.953125c0 5.65625-4.585937 10.230469-10.230469 10.230469h-35.757812c-5.644532 0-10.21875-4.574219-10.21875-10.230469v-20.953125zm0 0" fill="#caf1fd"/><path d="m15.457031 482.855469v13.390625h-15.45312475v-13.390625c0-4.265625 3.44921875-7.726563 7.72656275-7.726563 4.265625 0 7.726562 3.460938 7.726562 7.726563zm0 0" fill="#a79da8"/><path d="m25.902344 480.816406h56.207031v15.429688h-56.207031zm0 0" fill="#9de7fc"/><path d="m108.007812 482.855469v13.390625h-15.453124v-13.390625c0-4.265625 3.460937-7.726563 7.726562-7.726563s7.726562 3.460938 7.726562 7.726563zm0 0" fill="#a79da8"/><path d="m10.226562 388.03125h87.554688c5.648438 0 10.226562 4.578125 10.226562 10.226562v84.597657h-108.007812v-84.597657c0-5.648437 4.578125-10.226562 10.226562-10.226562zm0 0" fill="#6d80d6"/><g fill="#5169ce"><path d="m108.007812 398.257812v84.597657h-21.304687v-84.597657c0-5.652343-4.570313-10.230468-10.222656-10.230468h21.296875c5.652344 0 10.230468 4.582031 10.230468 10.230468zm0 0"/><path d="m63.78125 426.449219h-16.46875c-4.265625 0-7.726562-3.457031-7.726562-7.722657 0-4.269531 3.460937-7.726562 7.726562-7.726562h16.46875c4.265625 0 7.726562 3.457031 7.726562 7.726562 0 4.265626-3.460937 7.722657-7.726562 7.722657zm0 0"/><path d="m63.78125 451.253906h-16.46875c-4.265625 0-7.726562-3.460937-7.726562-7.726562s3.460937-7.726563 7.726562-7.726563h16.46875c4.265625 0 7.726562 3.460938 7.726562 7.726563s-3.460937 7.726562-7.726562 7.726562zm0 0"/></g><path d="m69.035156 336.015625h-30.0625c-5.820312 0-10.539062-4.71875-10.539062-10.539063v-49.898437c0-5.820313 4.71875-10.539063 10.539062-10.539063h30.0625c5.820313 0 10.539063 4.71875 10.539063 10.539063v49.898437c0 5.820313-4.71875 10.539063-10.539063 10.539063zm0 0" fill="#ccc6cc"/><path d="m79.570312 275.574219v49.902343c0 5.820313-4.71875 10.539063-10.539062 10.539063h-19.914062c5.824218 0 10.539062-4.71875 10.539062-10.539063v-49.902343c0-5.820313-4.714844-10.539063-10.539062-10.539063h19.914062c5.820312 0 10.539062 4.71875 10.539062 10.539063zm0 0" fill="#b6aeb7"/><path d="m408.460938 395.757812c-4.265626 0-7.726563-3.457031-7.726563-7.726562v-28.113281c0-4.269531 3.460937-7.726563 7.726563-7.726563 4.269531 0 7.726562 3.457032 7.726562 7.726563v28.113281c0 4.269531-3.457031 7.726562-7.726562 7.726562zm0 0" fill="#5169ce"/><path d="m332.785156 395.757812c-4.265625 0-7.726562-3.457031-7.726562-7.726562v-28.113281c0-4.269531 3.460937-7.726563 7.726562-7.726563 4.269532 0 7.726563 3.457032 7.726563 7.726563v28.113281c0 4.269531-3.457031 7.726562-7.726563 7.726562zm0 0" fill="#5169ce"/><path d="m332.074219 482.855469v17.894531c0 4.265625-3.460938 7.726562-7.726563 7.726562s-7.726562-3.460937-7.726562-7.726562v-17.894531c0-4.265625 3.460937-7.726563 7.726562-7.726563s7.726563 3.460938 7.726563 7.726563zm0 0" fill="#b6aeb7"/><path d="m424.625 482.855469v17.894531c0 4.265625-3.453125 7.726562-7.726562 7.726562-4.265626 0-7.726563-3.460937-7.726563-7.726562v-17.894531c0-4.265625 3.460937-7.726563 7.726563-7.726563 4.273437 0 7.726562 3.460938 7.726562 7.726563zm0 0" fill="#b6aeb7"/><path d="m398.726562 480.816406v20.953125c0 5.65625-4.574218 10.230469-10.230468 10.230469h-35.75c-5.652344 0-10.226563-4.574219-10.226563-10.230469v-20.953125zm0 0" fill="#caf1fd"/><path d="m332.074219 482.855469v13.390625h-15.453125v-13.390625c0-4.265625 3.460937-7.726563 7.726562-7.726563 4.261719 0 7.726563 3.460938 7.726563 7.726563zm0 0" fill="#a79da8"/><path d="m342.519531 480.816406h56.207031v15.429688h-56.207031zm0 0" fill="#9de7fc"/><path d="m424.625 482.855469v13.390625h-15.453125v-13.390625c0-4.265625 3.460937-7.726563 7.726563-7.726563 4.273437 0 7.726562 3.460938 7.726562 7.726563zm0 0" fill="#a79da8"/><path d="m326.84375 388.03125h87.554688c5.648437 0 10.226562 4.578125 10.226562 10.226562v84.597657h-108.007812v-84.597657c0-5.648437 4.582031-10.226562 10.226562-10.226562zm0 0" fill="#6d80d6"/><path d="m424.628906 398.257812v84.597657h-21.308594v-84.597657c0-5.652343-4.566406-10.230468-10.21875-10.230468h21.296876c5.648437 0 10.230468 4.582031 10.230468 10.230468zm0 0" fill="#5169ce"/><path d="m380.402344 426.449219h-16.46875c-4.269532 0-7.726563-3.457031-7.726563-7.722657 0-4.269531 3.457031-7.726562 7.726563-7.726562h16.46875c4.265625 0 7.726562 3.457031 7.726562 7.726562 0 4.265626-3.460937 7.722657-7.726562 7.722657zm0 0" fill="#5169ce"/><path d="m380.402344 451.253906h-16.46875c-4.269532 0-7.726563-3.460937-7.726563-7.726562s3.457031-7.726563 7.726563-7.726563h16.46875c4.265625 0 7.726562 3.460938 7.726562 7.726563s-3.460937 7.726562-7.726562 7.726562zm0 0" fill="#5169ce"/><path d="m385.65625 336.015625h-30.0625c-5.820312 0-10.539062-4.71875-10.539062-10.539063v-49.898437c0-5.820313 4.71875-10.539063 10.539062-10.539063h30.0625c5.820312 0 10.539062 4.71875 10.539062 10.539063v49.898437c0 5.820313-4.71875 10.539063-10.539062 10.539063zm0 0" fill="#ccc6cc"/><path d="m396.195312 275.574219v49.902343c0 5.820313-4.714843 10.539063-10.539062 10.539063h-19.921875c5.820313 0 10.539063-4.71875 10.539063-10.539063v-49.902343c0-5.820313-4.71875-10.539063-10.539063-10.539063h19.921875c5.824219 0 10.539062 4.71875 10.539062 10.539063zm0 0" fill="#b6aeb7"/></svg>